<svg width="800" height="800" viewBox="0 0 800 800" fill="none" xmlns="http://www.w3.org/2000/svg">
<g clip-path="url(#clip0_34_141)">
<path d="M533.486 405.465L467.309 443.201H334.689L268.514 405.465L368.261 327.745L486.87 335.637L533.486 405.465Z" fill="#CCA400"/>
<path d="M613.012 154.828L531.601 345.831L269.631 357.697L186.987 155.108L613.012 154.828Z" fill="#CCA400"/>
<path d="M471.541 378.803L452.466 586.263C451.5 597.03 459.98 606.306 470.791 606.306C483.005 606.306 492.998 616.3 492.998 628.514V671.633C492.998 683.847 483.005 693.841 470.791 693.841H329.208C316.994 693.841 307 683.847 307 671.633V628.516C307 616.302 316.994 606.308 329.208 606.308C340.02 606.308 348.502 597.031 347.533 586.264L344.448 551.899L337.719 476.947L328.931 379.064L361.183 312.106H459.075L471.541 378.803Z" fill="#FFD422"/>
<path d="M522.305 800H277.694C267.102 800 258.516 791.412 258.516 780.822V713.023C258.516 702.431 267.103 693.845 277.694 693.845H522.305C532.897 693.845 541.483 702.433 541.483 713.023V780.822C541.483 791.412 532.898 800 522.305 800Z" fill="#CCA400"/>
<path opacity="0.17" d="M522.305 800H277.694C267.102 800 258.516 791.413 258.516 780.822V746.922H541.484V780.822C541.483 791.413 532.898 800 522.305 800Z" fill="#663A00"/>
<path opacity="0.48" d="M490.585 396.65L401 422.174L317.356 396.65V340.897H490.585V396.65Z" fill="#CCA400"/>
<path d="M367.967 51.0654L399.898 0.206055L475.47 120.225L613.012 154.828L522.22 263.789L531.814 405.295L400.13 352.614L268.515 405.465L277.923 263.95L186.987 155.108L324.484 120.325L367.967 51.0654Z" fill="#FFCD00"/>
<path d="M299.611 248.033C295.85 248.033 292.142 246.306 289.742 243.047C285.734 237.602 286.9 229.939 292.345 225.931L493.141 78.1625C498.584 74.1562 506.245 75.3203 510.256 80.7656C514.264 86.2109 513.097 93.8734 507.652 97.8812L306.856 245.65C304.673 247.258 302.131 248.033 299.611 248.033Z" fill="#FFE477"/>
<path d="M228.066 383.878C224.333 383.878 220.65 382.176 218.247 378.956C214.202 373.539 215.317 365.867 220.735 361.823L475.666 171.556C481.085 167.511 488.758 168.626 492.799 174.044C496.844 179.461 495.728 187.133 490.311 191.176L235.378 381.447C233.181 383.087 230.613 383.878 228.066 383.878Z" fill="#FFE477"/>
<g opacity="0.28">
<path d="M526.223 132.789L475.469 120.02L399.898 0L367.967 50.8625L324.486 120.12L186.986 154.905L277.922 263.745L276.873 279.508C354.23 271.016 455.625 237.856 526.223 132.789Z" fill="white"/>
</g>
<g opacity="0.41">
<path d="M307 654.771V674.933C307 687.147 316.994 697.141 329.208 697.141H470.791C483.005 697.141 492.998 687.147 492.998 674.933V654.771H307Z" fill="#CCA400"/>
</g>
</g>
<defs>
<clipPath id="clip0_34_141">
<rect width="800" height="800" fill="white"/>
</clipPath>
</defs>
</svg>
