<svg width="800" height="800" viewBox="0 0 800 800" fill="none" xmlns="http://www.w3.org/2000/svg">
<g clip-path="url(#clip0_34_66)">
<path d="M686.25 496.25L777.5 591.25L376.25 792.5C376.25 792.5 323.75 818.75 298.75 777.5C198.75 615 686.25 496.25 686.25 496.25Z" fill="#8A448A"/>
<path d="M365 673.75C365 673.75 288.75 702.5 302.5 756.25C317.5 812.5 378.75 778.75 378.75 778.75L760 591.25C760 591.25 738.75 531.25 777.5 491.25L365 673.75Z" fill="#D9E3E8"/>
<path d="M430 111.25L795 487.5L363.75 666.25L87.5 208.75L430 111.25Z" fill="#936C93"/>
<path d="M758.75 532.5L503.75 642.5L753.75 521.25L758.75 532.5Z" fill="#94989B"/>
<path d="M755 565L483.75 683.75L750 553.75L755 565Z" fill="#94989B"/>
<path d="M757.5 583.75L411.25 742.5L752.5 572.5L757.5 583.75Z" fill="#94989B"/>
<path d="M297.5 776.25C255 682.5 363.75 666.25 363.75 666.25L87.5 208.75C87.5 208.75 25 207.5 25 276.25C25 305 37.5 326.25 37.5 326.25L297.5 776.25Z" fill="#936C93"/>
<path d="M108.75 402.5L17.5 497.5L418.75 698.75C418.75 698.75 471.25 725 496.25 683.75C596.25 521.25 108.75 402.5 108.75 402.5Z" fill="#6C936C"/>
<path d="M428.75 580C428.75 580 505 608.75 491.25 662.5C476.25 718.75 416.25 685 416.25 685L35 497.5C35 497.5 56.25 437.5 17.5 397.5L428.75 580Z" fill="#D9E3E8"/>
<path d="M365 17.5L0 393.75L431.25 572.5L707.5 115L365 17.5Z" fill="#6C936C"/>
<path d="M40 427.5L290 548.75L35 438.75L40 427.5Z" fill="#94989B"/>
<path d="M45 460L310 590L38.75 471.25L45 460Z" fill="#94989B"/>
<path d="M42.5 478.75L382.5 648.75L36.25 490L42.5 478.75Z" fill="#94989B"/>
<path d="M497.5 682.5C540 588.75 431.25 572.5 431.25 572.5L707.5 115C707.5 115 770 113.75 770 182.5C770 211.25 757.5 232.5 757.5 232.5L497.5 682.5Z" fill="#699635"/>
<path d="M708.75 325L785 405L446.25 573.75C446.25 573.75 401.25 595 380 561.25C297.5 425 708.75 325 708.75 325Z" fill="#962C2C"/>
<path d="M437.5 475C437.5 475 372.5 498.75 385 545C397.5 592.5 448.75 563.75 448.75 563.75L770 405C770 405 752.5 355 785 321.25L437.5 475Z" fill="#D9E3E8"/>
<path d="M492.5 0L800 317.5L436.25 468.75L202.5 82.5L492.5 0Z" fill="#ED4C5C"/>
<path d="M501.25 72.5L561.25 138.75L340 222.5L287.5 137.5L501.25 72.5Z" fill="white"/>
<path d="M770 356.25L555 447.5L765 345L770 356.25Z" fill="#94989B"/>
<path d="M767.5 383.75L537.5 482.5L762.5 372.5L767.5 383.75Z" fill="#94989B"/>
<path d="M770 398.75L477.5 532.5L763.75 387.5L770 398.75Z" fill="#94989B"/>
<path d="M381.25 561.25C346.25 482.5 437.5 468.75 437.5 468.75L202.5 82.5C202.5 82.5 148.75 81.25 148.75 138.75C148.75 162.5 158.75 181.25 158.75 181.25L381.25 561.25Z" fill="#C94747"/>
</g>
<defs>
<clipPath id="clip0_34_66">
<rect width="800" height="800" fill="white"/>
</clipPath>
</defs>
</svg>
