<?xml version="1.0" encoding="utf-8"?><!-- Uploaded to: SVG Repo, www.svgrepo.com, Generator: SVG Repo Mixer Tools -->
<svg version="1.1" id="Uploaded to svgrepo.com" xmlns="http://www.w3.org/2000/svg" xmlns:xlink="http://www.w3.org/1999/xlink" 
	 width="800px" height="800px" viewBox="0 0 32 32" xml:space="preserve">
<style type="text/css">
	.feather_een{fill:#0B1719;}
</style>
<path class="feather_een" d="M15,14.5c0-0.276,0.224-0.5,0.5-0.5h6c0.276,0,0.5,0.224,0.5,0.5S21.776,15,21.5,15h-6
	C15.224,15,15,14.776,15,14.5z M15,16.5c0-0.276,0.224-0.5,0.5-0.5h6c0.276,0,0.5,0.224,0.5,0.5S21.776,17,21.5,17h-6
	C15.224,17,15,16.776,15,16.5z M15,18.5c0-0.276,0.224-0.5,0.5-0.5h6c0.276,0,0.5,0.224,0.5,0.5S21.776,19,21.5,19h-6
	C15.224,19,15,18.776,15,18.5z M24,2H7C5.343,2,4,3.343,4,5v2c0,0.552,0.448,1,1,1h4v16H5c-0.552,0-1,0.448-1,1v2
	c0,1.657,1.343,3,3,3l17,0c1.657,0,3-1.343,3-3V5C27,3.343,25.657,2,24,2z M9,27c0,1.105-0.895,2-2,2c-1.103,0-2-0.897-2-2v-2h4V27z
	 M9,7H5V5c0-1.103,0.897-2,2-2c1.105,0,2,0.895,2,2V7z M26,27c0,0.534-0.208,1.036-0.586,1.414C25.036,28.792,24.534,29,24,29
	L9.234,29C9.71,28.469,10,27.768,10,27V5c0-0.768-0.29-1.469-0.766-2H24c1.103,0,2,0.897,2,2V27z"/>
</svg>