<svg width="800" height="800" viewBox="0 0 800 800" fill="none" xmlns="http://www.w3.org/2000/svg">
<g clip-path="url(#clip0_34_95)">
<path d="M572.244 197.056C574.17 195.385 576.435 194.149 578.882 193.433C581.33 192.717 583.903 192.537 586.427 192.906C588.903 193.256 591.268 194.156 593.351 195.541C595.433 196.925 597.178 198.759 598.459 200.906C599.943 203.869 600.787 207.111 600.937 210.422C602.018 223.377 599.517 236.38 593.707 248.009C590.968 253.886 586.993 259.104 582.054 263.305C578.041 266.558 573.254 268.716 568.159 269.568L565.78 269.935C564.64 274.202 563.359 277.798 562.73 279.705C558.681 290.695 536.013 328.74 507.493 342.58C507.422 352.18 507.234 363.172 510.58 371.479C516.305 385.607 547.142 403.41 549.267 404.333C549.267 404.333 532.515 468.766 452.848 468.766C351.543 468.766 355.674 401.85 355.674 401.85C357.799 400.927 383.817 385.607 389.533 371.479C393.341 362.052 392.567 349.144 392.631 338.745C382.525 332.367 373.523 324.39 365.976 315.126C355.241 301.959 347.41 286.673 342.994 270.269L338.473 269.57C333.378 268.718 328.59 266.56 324.578 263.307C319.639 259.106 315.664 253.889 312.924 248.011C307.114 236.382 304.613 223.379 305.695 210.424C305.844 207.114 306.688 203.872 308.171 200.908C309.452 198.761 311.198 196.927 313.28 195.543C315.363 194.159 317.729 193.258 320.205 192.908C322.728 192.539 325.302 192.719 327.749 193.435C330.197 194.151 332.461 195.387 334.388 197.058C334.388 197.058 345.65 91.4175 453.839 91.4175C562.029 91.4175 572.244 197.056 572.244 197.056Z" fill="white"/>
<path d="M590.406 116.986C589.402 112.645 588.096 108.379 586.498 104.219C580.618 89.2001 571.611 71.8637 553.37 61.8523L531.964 45.7574C510.611 10.4009 471.251 3.48979 437.693 5.83553C397.851 8.6305 369.455 19.3213 343.563 49.7341C305.832 94.0509 304.776 152.675 319.032 193.134C319.377 193.035 319.728 192.961 320.083 192.913C322.587 192.546 325.141 192.725 327.57 193.435C329.999 194.146 332.246 195.373 334.158 197.031L352.842 176.703C360.654 165.594 382.805 138.058 399.644 134.692C411.682 132.287 424.513 134.893 437.001 134.391C459.639 133.482 478.361 122.76 498.439 114.937C501.113 113.897 503.81 112.905 506.543 111.998C508.053 111.389 509.68 111.122 511.306 111.217C513.173 111.577 514.865 112.556 516.108 113.996C539.421 136.746 561.314 169.444 565.266 203.553C568.871 200.271 572.461 197.031 572.461 197.031C574.372 195.373 576.619 194.146 579.048 193.435C581.477 192.725 584.031 192.546 586.535 192.913C587.063 192.989 587.586 193.099 588.1 193.243C595.885 169.119 595.653 139.195 590.406 116.986Z" fill="#7A7473"/>
<path d="M502.175 342.972C501.8 351.16 502.347 359.364 503.806 367.43C505.135 373.293 507.981 378.704 512.06 383.122C519.387 391.442 528.879 398.057 538.193 403.974C540.873 405.815 543.677 407.468 546.585 408.923C547.81 409.593 549.246 409.768 550.597 409.414C551.948 409.06 553.112 408.202 553.852 407.017C554.552 405.798 554.744 404.353 554.387 402.993C554.031 401.634 553.154 400.469 551.947 399.75C548.798 398.173 545.766 396.373 542.873 394.364C537.437 390.942 532.234 387.164 527.299 383.053C522.665 379.121 517.898 375.002 515.557 369.68C512.058 361.725 512.739 351.591 512.801 342.972C512.852 336.136 502.23 336.129 502.179 342.972H502.175Z" fill="#211715"/>
<path d="M387.324 341.819C387.368 350.124 387.811 358.784 385.514 366.856C383.637 372.291 380.307 377.108 375.885 380.783C371.5 384.88 366.778 388.6 361.769 391.905C358.994 393.927 356.06 395.72 352.994 397.267C351.786 397.985 350.909 399.149 350.552 400.509C350.195 401.869 350.388 403.314 351.089 404.532C351.822 405.724 352.986 406.587 354.34 406.942C355.693 407.297 357.131 407.116 358.354 406.438C361.774 404.709 365.041 402.692 368.118 400.407C373.927 396.534 379.381 392.151 384.414 387.311C389.666 382.522 393.577 376.445 395.758 369.68C398.314 360.693 397.997 351.065 397.946 341.819C397.911 334.985 387.289 334.97 387.324 341.819Z" fill="#211715"/>
<path d="M323.478 189.744C308.72 145.359 315.232 93.2056 344.975 56.3221C359.392 38.4414 377.64 24.5417 399.719 17.7147C410.953 14.3731 422.518 12.2606 434.208 11.4144C444.95 10.4061 455.767 10.5173 466.486 11.7464C478.297 13.0834 489.747 16.6528 500.225 22.2646C511.401 28.4753 520.761 37.4973 527.378 48.4373C530.937 54.2619 540.127 48.9308 536.551 43.0753C523.523 21.7512 502.308 8.11048 478.045 2.99189C454.627 -1.95187 429.331 -0.409437 406.123 4.98356C382.422 10.466 360.917 22.9501 344.404 40.8137C325.836 60.725 313.271 85.4766 308.155 112.217C303.013 138.999 304.764 166.649 313.245 192.568C315.392 199.023 325.653 196.257 323.487 189.744H323.478Z" fill="#211715"/>
<path d="M357.431 179.374C365.39 167.845 374.835 157.416 385.521 148.357C390.889 143.931 396.364 140.422 403.072 139.45C413.774 137.901 424.694 139.963 435.441 139.74C456.105 139.297 474.568 130.561 493.252 122.727C498.227 120.642 503.257 118.557 508.415 116.973C510.365 116.371 510.887 116.362 512.354 117.752C514.054 119.361 515.674 121.056 517.298 122.749C523.974 129.712 530.105 137.178 535.635 145.082C547.963 162.797 557.78 183.176 560.099 204.859C560.139 206.255 560.711 207.583 561.699 208.57C562.686 209.558 564.014 210.13 565.41 210.17C566.816 210.16 568.162 209.598 569.156 208.604C570.15 207.61 570.712 206.264 570.721 204.859C568.1 183.816 560.657 163.662 548.97 145.967C543.224 136.985 536.772 128.475 529.673 120.518C526.453 116.891 523.134 113.293 519.591 109.976C514.961 105.643 509.967 105.233 504.1 107.218C483.847 114.078 464.893 125.807 443.381 128.558C431.856 130.032 420.342 128.007 408.794 128.387C400.124 128.436 391.664 131.062 384.492 135.934C370.092 145.761 358.239 159.865 348.248 174.019C347.549 175.238 347.357 176.683 347.713 178.042C348.069 179.402 348.946 180.567 350.153 181.286C351.376 181.968 352.815 182.15 354.17 181.795C355.524 181.44 356.689 180.575 357.42 179.381L357.431 179.374Z" fill="#211715"/>
<path d="M550.696 66.4375C565.375 74.6388 574.574 88.7088 580.733 103.992C587.31 120.312 589.295 138.292 588.806 155.775C588.563 166.734 586.978 177.621 584.088 188.195C582.244 194.787 592.497 197.602 594.329 191.019C599.735 170.732 600.962 149.559 597.936 128.783C595.79 111.161 589.594 94.2744 579.834 79.4453C573.737 70.3025 565.594 62.7059 556.049 57.2582C550.074 53.9188 544.712 63.0915 550.687 66.4287L550.696 66.4375Z" fill="#211715"/>
<path d="M284.034 794.773C284.145 791.785 284.233 789.152 284.344 786.961C283.68 748.128 282.08 695.544 279.73 641.826L278.612 643.287L274.93 648.098C264.887 660.778 243.922 685.55 230.533 697.265C217.185 708.941 196.303 716.095 178.728 713.292C151.362 708.866 139.395 682.83 128.221 657.43C112.153 620.898 100.73 581.607 89.3064 545.117C112.195 540.138 148.643 523.43 171.531 511.392C180.573 533.628 188.547 553.438 197.666 574.8C214.084 532.249 218.309 508.982 234.417 466.911C237.407 459.104 239.649 452.084 245.354 445.963C250.709 440.223 257.795 436.64 264.949 433.407C286.935 423.471 339.606 403.311 366.257 391.361C371.143 379.514 378.412 368.799 387.612 359.879C402.477 374.747 419.859 386.863 438.953 395.665C440.015 396.147 441.201 396.738 441.544 397.853C441.712 398.86 441.499 399.893 440.949 400.752C440.105 402.144 439.165 403.475 438.136 404.736L461.372 404.707C460.348 403.457 459.413 402.137 458.573 400.757C458.023 399.897 457.812 398.864 457.98 397.858C458.323 396.751 459.509 396.152 460.571 395.669C479.664 386.867 497.047 374.751 511.912 359.883C520.59 368.26 527.536 378.26 532.357 389.316C555.731 398.672 615.344 421.596 637.799 432.446C645.013 435.932 652.92 439.061 658.379 444.919C664.201 451.157 667.578 459.544 670.63 467.511C686.86 509.891 693.678 551.511 702.53 597.737H631.21C628.473 665.494 625.939 740.214 624.893 791.723C624.87 792.764 624.87 793.781 624.848 794.777L284.034 794.773Z" fill="white"/>
<path d="M458.194 790.779C469.83 777.986 480.739 764.551 490.869 750.536C493.861 746.178 496.417 743.826 496.7 740.562C496.808 736.302 496.56 732.041 495.959 727.822C489.733 657.872 480.503 548.525 468.615 446.47C468.959 442.303 469.889 438.206 471.377 434.299C473.09 429.041 476.67 416.978 474.785 421.269C472.871 418.952 470.981 416.653 469.202 414.477C466.09 410.669 463.322 407.232 461.379 404.711L438.143 404.74C436.202 407.259 433.442 410.684 430.342 414.477C429.098 415.998 427.801 417.575 426.48 419.182C427.489 424.597 429.435 430.36 430.705 435.799C430.926 436.879 431.205 437.917 431.475 438.997C432.146 441.302 432.534 443.68 432.63 446.078C424 540.05 412.897 656.204 405.136 736.581C404.593 739.629 404.837 742.765 405.847 745.692C407.171 748.241 408.749 750.651 410.556 752.884C420.337 766.436 431.138 779.223 442.865 791.133C444.814 793.123 447.347 794.44 450.095 794.895C451.615 794.82 453.102 794.432 454.466 793.756C455.829 793.081 457.038 792.131 458.017 790.967L458.194 790.779Z" fill="#699635"/>
<path d="M434.266 451.062C445.357 451.062 456.448 450.816 467.54 450.812C468.948 450.812 470.299 450.252 471.295 449.256C472.291 448.26 472.851 446.909 472.851 445.501C472.851 444.092 472.291 442.741 471.295 441.745C470.299 440.749 468.948 440.19 467.54 440.19C456.448 440.19 445.357 440.435 434.266 440.44C432.857 440.44 431.506 440.999 430.51 441.995C429.514 442.991 428.954 444.342 428.954 445.751C428.954 447.159 429.514 448.51 430.51 449.506C431.506 450.502 432.857 451.062 434.266 451.062Z" fill="#211715"/>
<path d="M421.444 421.076C422.851 427.917 424.984 434.602 426.598 441.398C428.054 447.537 426.567 454.249 425.991 460.469C424.789 473.49 423.58 486.511 422.364 499.533C419.847 526.531 417.31 553.522 414.752 580.505C409.994 630.744 405.191 680.978 400.343 731.208C399.714 737.709 398.705 744.063 402.102 750.018C405.925 756.096 410.186 761.887 414.851 767.345C419.277 772.975 423.89 778.455 428.691 783.786C430.957 786.304 433.259 788.79 435.595 791.243C437.848 793.95 440.513 796.285 443.491 798.163C446.468 799.79 449.917 800.336 453.25 799.708C456.584 799.079 459.597 797.315 461.777 794.715C466.119 790.115 470.173 785.184 474.258 780.355C482.714 770.36 490.453 759.932 498.227 749.416C499.871 747.427 501.066 745.105 501.73 742.611C502.186 739.82 502.235 736.978 501.876 734.173C501.398 728.692 500.854 723.217 500.369 717.737C499.394 706.717 498.421 695.696 497.45 684.676C495.219 659.421 492.944 634.171 490.623 608.926C488.01 580.748 485.273 552.578 482.411 524.417C480.946 510.107 479.433 495.796 477.872 481.486C477.083 474.257 476.277 467.028 475.455 459.799C475.045 456.203 474.633 452.607 474.218 449.011C473.896 445.511 474.344 441.984 475.531 438.676C477.08 433.599 478.808 428.58 480.123 423.433C481.815 416.807 471.574 413.979 469.881 420.609C468.564 425.757 466.836 430.776 465.287 435.852C464.087 439.263 463.415 442.837 463.295 446.45C463.357 449.829 464.096 453.352 464.479 456.712C466.092 470.827 467.647 484.949 469.144 499.077C472.111 526.987 474.914 554.913 477.553 582.857C482.108 630.682 486.261 678.541 490.515 726.392C490.767 729.238 491.097 732.08 491.318 734.928C491.664 736.92 491.601 738.962 491.134 740.929C489.816 743.226 488.29 745.397 486.573 747.413C484.832 749.89 483.09 752.359 481.276 754.782C473.705 764.898 465.448 774.513 457.099 783.994C455.55 785.746 453.759 788.674 451.376 789.367C449.457 789.922 447.614 788.338 446.271 786.999C441.365 782.09 436.698 776.917 432.152 771.674C427.607 766.432 423.263 761.109 419.113 755.592C417.188 753.032 415.298 750.441 413.419 747.847C411.319 745.518 410.181 742.479 410.233 739.343C410.647 728.318 412.313 717.213 413.371 706.219C414.508 694.381 415.644 682.543 416.779 670.705C419.229 645.141 421.667 619.576 424.093 594.008C426.601 567.6 429.091 541.186 431.563 514.764C432.769 501.864 433.97 488.966 435.168 476.068C435.735 469.956 436.301 463.845 436.866 457.734C437.143 454.735 437.419 451.736 437.693 448.738C437.969 444.979 437.595 441.2 436.587 437.567C434.994 431.121 433.017 424.732 431.679 418.239C430.302 411.547 420.06 414.38 421.437 421.063L421.444 421.076Z" fill="#211715"/>
<path d="M461.405 399.396L438.227 399.425C436.818 399.425 435.467 399.984 434.471 400.98C433.475 401.976 432.916 403.327 432.916 404.736C432.916 406.144 433.475 407.495 434.471 408.491C435.467 409.487 436.818 410.047 438.227 410.047L461.405 410.018C462.814 410.018 464.165 409.458 465.161 408.462C466.157 407.466 466.716 406.115 466.716 404.707C466.716 403.298 466.157 401.947 465.161 400.951C464.165 399.955 462.814 399.396 461.405 399.396Z" fill="#211715"/>
<path d="M494.102 443.879C506.696 431.265 516.453 416.305 525.672 401.142C527.885 397.479 530.098 393.801 532.326 390.141C533.712 387.864 535.726 385.509 534.938 382.65C534.128 380.502 533.058 378.46 531.753 376.571C527.411 369.016 521.996 362.13 515.678 356.128C514.671 355.154 513.324 354.609 511.923 354.609C510.521 354.609 509.175 355.154 508.167 356.128C495.497 368.831 480.916 379.472 464.953 387.663C461.487 389.446 456.473 390.761 454.109 394.029C453.086 395.64 452.597 397.533 452.711 399.438C452.826 401.343 453.538 403.164 454.747 404.64C459.263 411.248 464.685 417.334 469.77 423.502C475.374 430.298 481.034 437.047 486.589 443.879C487.589 444.866 488.938 445.42 490.344 445.42C491.75 445.42 493.099 444.866 494.1 443.879C495.067 442.867 495.607 441.522 495.607 440.123C495.607 438.724 495.067 437.379 494.1 436.368C488.446 429.415 482.683 422.548 476.982 415.63C473.743 411.7 470.507 407.763 467.338 403.775C466.32 402.492 463.098 399.349 463.289 397.858L462.567 400.546C462.321 401.049 461.653 400.974 462.607 400.571C463.244 400.301 463.866 399.987 464.495 399.686C465.607 399.168 466.713 398.637 467.814 398.094C470.204 396.914 472.565 395.677 474.896 394.383C479.845 391.639 484.656 388.663 489.329 385.454C498.776 379.024 507.597 371.721 515.676 363.639H508.165C515.123 370.316 520.893 378.128 525.229 386.742V381.38C513.501 400.504 502.569 420.361 486.589 436.368C481.756 441.212 489.264 448.725 494.102 443.879Z" fill="#211715"/>
<path d="M412.944 436.368C396.964 420.362 386.034 400.505 374.303 381.38V386.742C378.639 378.129 384.409 370.316 391.367 363.639H383.856C391.935 371.721 400.756 379.025 410.204 385.454C414.744 388.564 419.416 391.463 424.221 394.151C426.55 395.452 428.911 396.698 431.302 397.889C432.404 398.435 433.511 398.97 434.622 399.493C435.286 399.801 435.939 400.109 436.6 400.409C436.82 400.504 437.033 400.614 437.238 400.737C437.749 401.034 437.658 400.958 436.963 400.538L436.24 397.858C436.43 399.343 433.208 402.492 432.19 403.775C429.021 407.759 425.785 411.7 422.546 415.63C416.845 422.548 411.083 429.415 405.428 436.368C404.469 437.383 403.935 438.727 403.935 440.123C403.935 441.52 404.469 442.864 405.428 443.879C406.429 444.866 407.778 445.419 409.184 445.419C410.589 445.419 411.938 444.866 412.939 443.879C423.119 431.369 433.83 419.244 443.531 406.356C445.567 404.119 446.761 401.244 446.908 398.223C446.769 392.965 441.878 391.261 437.906 389.329C429.851 385.393 422.11 380.845 414.752 375.724C406.373 369.92 398.544 363.36 391.363 356.128C390.355 355.155 389.009 354.611 387.607 354.611C386.206 354.611 384.86 355.155 383.852 356.128C377.534 362.13 372.12 369.016 367.777 376.571C366.472 378.461 365.403 380.502 364.593 382.65C363.849 385.35 365.626 387.548 366.945 389.716C369.26 393.518 371.548 397.338 373.858 401.142C383.073 416.305 392.834 431.265 405.428 443.879C410.268 448.723 417.781 441.214 412.944 436.368Z" fill="#211715"/>
<path d="M260.55 443.022C265.903 484.976 268.38 527.336 270.794 569.546C273.68 619.992 275.877 670.471 277.386 720.984C277.78 733.596 278.132 746.21 278.442 758.826C278.732 770.813 279.159 782.792 278.719 794.777C278.466 801.613 289.088 801.602 289.341 794.777C290.137 773.108 288.918 751.275 288.272 729.606C287.534 704.906 286.649 680.213 285.616 655.527C283.556 605.969 281.062 556.408 277.302 506.948C275.68 485.609 273.877 464.258 271.168 443.027C271.125 441.632 270.551 440.306 269.564 439.319C268.578 438.332 267.252 437.759 265.857 437.716C264.45 437.723 263.104 438.285 262.11 439.28C261.115 440.274 260.553 441.62 260.546 443.027L260.55 443.022Z" fill="#211715"/>
<path d="M630.159 794.773C630.558 770.36 631.308 745.948 632.065 721.544C632.926 693.849 633.885 666.159 634.942 638.471C635.967 611.227 637.073 583.984 638.261 556.744C639.264 533.744 640.352 510.749 641.525 487.757C642.289 473.194 643.01 458.613 644.21 444.076C644.294 443.067 644.38 442.06 644.475 441.053C644.465 439.647 643.902 438.302 642.909 437.308C641.915 436.314 640.57 435.752 639.164 435.742C637.765 435.771 636.431 436.34 635.441 437.33C634.451 438.319 633.882 439.653 633.853 441.053C632.622 454.264 631.989 467.542 631.272 480.789C630.073 502.961 629 525.14 628.053 547.326C626.858 574.247 625.751 601.172 624.733 628.099C623.667 655.965 622.683 683.833 621.781 711.705C620.993 736.343 620.312 760.98 619.739 785.618C619.672 788.67 619.615 791.723 619.566 794.775C619.453 801.613 630.075 801.613 630.188 794.775L630.159 794.773Z" fill="#211715"/>
<path d="M130.147 402.503C125.19 382.887 111.263 333.941 106.14 327.401C102.463 322.708 98.1074 319.094 90.0323 322.533C83.1101 325.485 84.2321 333.478 85.5422 340.084C86.9828 347.358 95.5581 381.688 100.566 399.509C98.6635 397.373 96.1413 395.886 93.352 395.254C90.5627 394.622 87.6457 394.878 85.0089 395.986C79.5163 398.491 77.3985 403.173 78.0137 406.557C78.0137 406.557 78.4983 409.213 79.1998 413.017C77.2257 411.944 75.0122 411.387 72.7654 411.4C70.5185 411.412 68.3113 411.993 66.3491 413.087C61.6068 415.628 56.8334 422.426 59.1636 427.33L62.2972 433.905L61.3191 433.101C55.2954 428.147 44.8325 431.196 43.1329 437.802C41.8273 442.872 44.0314 448.853 46.8529 453.49C47.1893 454.041 47.5478 454.631 47.9262 455.26L48.4772 456.957C52.3035 468.805 59.7634 486.91 70.9123 499.811C76.0906 505.786 82.0723 511.728 86.7682 518.143C91.4641 524.559 92.6347 531.687 94.9274 539.364L95.9475 542.758C108.083 538.275 142.241 525.513 160.416 516.867L159.769 515.048C157.981 506.798 156.007 496.074 157.18 489.085C159.271 481.205 161.905 473.478 165.063 465.962C167.645 459.857 168.774 453.236 168.362 446.62C167.537 439.096 165.59 428.357 160 420.521C158.891 418.994 157.507 417.688 155.919 416.67C155.738 416.539 155.547 416.424 155.346 416.327C148.687 412.244 139.93 412.227 132.386 412.547L131.756 409.339C131.49 407.973 130.93 405.603 130.147 402.503Z" fill="white"/>
<path d="M136.872 407.911C135.064 398.823 132.346 389.851 129.844 380.938C126.254 368.149 122.525 355.378 118.248 342.799C115.149 333.66 112.069 321.739 102.412 317.333C93.7943 313.4 81.8709 317.886 79.7398 327.559C78.3301 333.95 80.1647 340.679 81.6186 346.92C85.63 364.135 89.9925 381.273 94.7061 398.334C96.5141 404.917 106.765 402.12 104.948 395.508C100.896 380.752 97.1271 365.912 93.5177 351.04C92.3581 346.254 91.1078 341.458 90.2713 336.601C89.8287 334.001 89.3994 330.546 90.5612 328.69C91.4575 327.748 92.5973 327.073 93.854 326.74C95.1107 326.406 96.4351 326.428 97.6803 326.802C98.8193 327.342 99.8256 328.126 100.628 329.099C100.949 329.44 102.053 330.763 101.805 330.427C101.44 329.931 101.996 330.712 102.069 330.843C102.744 332.038 103.337 333.25 103.901 334.503C104.487 335.802 103.739 334.06 104.06 334.875C104.228 335.297 104.401 335.718 104.569 336.138C104.99 337.204 105.397 338.272 105.791 339.345C106.676 341.766 107.528 344.202 108.351 346.648C112.286 358.334 115.767 370.178 119.117 382.042C121.795 391.524 124.709 401.073 126.641 410.748C127.016 412.107 127.914 413.26 129.14 413.956C130.365 414.651 131.816 414.832 133.174 414.457C134.532 414.083 135.686 413.184 136.381 411.959C137.077 410.734 137.257 409.283 136.883 407.925L136.872 407.911Z" fill="#211715"/>
<path d="M43.3542 458.365C47.7166 472.81 54.4397 486.435 63.251 498.685C68.5886 505.74 75.0306 511.839 80.5674 518.723C85.863 525.307 87.4763 532.842 89.8065 540.771C91.7296 547.317 101.978 544.533 100.048 537.947C97.6692 529.846 95.9187 521.558 90.7537 514.658C85.3828 507.475 78.8833 501.296 73.2359 494.354C64.1074 483.132 58.035 469.206 53.5892 455.541C51.4824 449.068 41.2231 451.839 43.3453 458.365H43.3542Z" fill="#211715"/>
<path d="M138.2 453.259C137.624 449.254 136.325 445.421 135.389 441.495C134.592 437.838 132.439 434.619 129.363 432.486C126.105 430.612 122.451 429.531 118.697 429.333C117.472 429.18 116.256 428.964 115.054 428.684C114.92 428.666 114.788 428.629 114.663 428.576C115.375 429.178 114.052 427.532 113.868 427.118C113.359 426.053 113.226 424.848 113.49 423.699C113.673 422.948 113.958 422.225 114.335 421.55C114.572 421.092 114.882 420.665 115.112 420.204C115.654 419.122 115.322 420.056 115.112 420.173C117.744 419.164 120.523 418.59 123.34 418.474C130.864 417.741 139.348 417.066 146.257 418.567C149.506 419.031 152.536 420.474 154.943 422.705C157.063 425.242 158.663 428.17 159.652 431.325C161.911 437.236 163.098 443.503 163.155 449.832C162.934 459.929 158.065 468.56 154.903 478.027C154.122 480.368 153.354 482.716 152.668 485.089C152.471 485.777 152.265 486.467 152.124 487.169C152.004 487.764 151.951 488.373 151.871 488.974C152.068 487.494 151.69 490.358 151.65 490.893C150.891 499.367 152.883 508.205 154.655 516.444C156.091 523.125 166.333 520.297 164.897 513.62C163.288 506.136 161.493 498.198 162.305 490.497C162.39 489.716 163.005 488.543 162.427 489.532C161.965 490.322 162.372 489.857 162.509 489.408C162.759 488.569 162.969 487.717 163.222 486.879C163.978 484.367 164.802 481.875 165.645 479.392C166.501 476.865 167.384 474.345 168.325 471.848C168.679 470.91 169.037 469.972 169.431 469.047C169.077 469.888 169.239 469.465 169.498 468.956C169.757 468.447 169.982 467.993 170.204 467.5C173.039 461.009 174.243 453.923 173.711 446.86C173.135 438.958 171.223 431.211 168.057 423.949C166.479 420.056 163.973 416.608 160.758 413.905C157.543 411.202 153.716 409.326 149.61 408.44C140.945 406.844 132.08 406.645 123.353 407.852C119.281 408.051 115.262 408.865 111.434 410.266C109.605 411.129 107.98 412.372 106.667 413.91C105.353 415.449 104.382 417.249 103.817 419.191C102.924 421.583 102.608 424.153 102.894 426.69C103.18 429.228 104.06 431.662 105.463 433.796C106.524 435.42 107.946 436.776 109.618 437.758C111.29 438.741 113.166 439.324 115.101 439.462C117.887 439.864 122.888 439.683 124.53 442.385C125.343 444.323 125.911 446.355 126.221 448.433C126.964 450.94 127.546 453.493 127.965 456.074C128.346 457.428 129.246 458.577 130.469 459.272C131.692 459.966 133.139 460.151 134.497 459.785C135.833 459.379 136.961 458.475 137.65 457.261C138.339 456.047 138.536 454.614 138.2 453.259Z" fill="#211715"/>
<path d="M71.7753 457.466C72.0254 458.351 71.8594 456.515 71.8351 457.769C71.8107 459.024 72.0807 457.302 71.7886 458.212C71.7089 458.46 71.1026 460.071 71.5673 459.051C71.3077 459.616 71.012 460.163 70.6821 460.691C70.5161 460.958 70.3347 461.215 70.1598 461.474C70.2063 461.405 70.6622 460.865 70.2749 461.326C69.9343 461.737 69.5715 462.129 69.1883 462.501C68.9671 462.707 68.7458 462.897 68.5355 463.092C68.7015 462.943 69.3964 462.574 68.6063 463.016C68.4359 463.112 68.2611 463.22 68.0974 463.324C67.4467 463.74 67.6083 463.457 68.1903 463.324C67.896 463.393 66.608 463.727 67.0838 463.64C67.7477 463.519 66.7386 463.665 66.5793 463.676C66.3292 463.689 66.0791 463.698 65.8291 463.7C65.579 463.702 63.7223 463.581 64.6761 463.7C63.9841 463.602 63.3 463.454 62.6291 463.258C62.2728 463.16 61.0801 462.749 61.3013 462.844C61.5691 462.957 60.3962 462.372 60.1285 462.211C59.8607 462.049 59.573 461.866 59.3075 461.675C59.5044 461.815 59.9868 462.302 59.2942 461.624C58.8228 461.164 58.3448 460.717 57.8978 460.232C57.4508 459.748 57.0834 459.305 56.694 458.825C56.1252 458.128 57.0657 459.334 56.5169 458.604C56.3509 458.382 56.185 458.161 56.0234 457.929C55.1582 456.727 54.3416 455.495 53.5471 454.24C52.0546 452.006 50.7163 449.672 49.5417 447.256C49.5284 447.222 49.1721 446.335 49.3934 446.902C49.2872 446.627 49.1854 446.353 49.0902 446.076C48.8689 445.432 48.6609 444.782 48.4905 444.124C48.3931 443.75 48.3223 443.374 48.2294 443C48.205 442.903 48.0568 441.962 48.1541 442.726C48.059 441.984 48.0966 441.245 48.0656 440.513C48.0656 440.387 48.1431 439.455 48.0324 440.291C48.0712 440.023 48.1244 439.756 48.1917 439.493C48.2831 439.226 48.357 438.954 48.413 438.678C48.4617 438.165 48.309 438.961 48.2404 439.065C48.4285 438.784 49.3204 437.534 48.4396 438.539C48.7848 438.145 49.15 437.789 49.5173 437.432C49.774 437.176 50.2343 437.058 49.3779 437.527C49.6103 437.399 49.8205 437.226 50.0418 437.085C50.2631 436.943 50.522 436.83 50.7521 436.691C51.5709 436.191 50.2343 436.771 50.8053 436.647C51.343 436.529 51.8631 436.286 52.4052 436.158C52.6774 436.093 52.9629 436.062 53.2307 435.989C53.9078 435.804 52.0202 436.018 53.2926 436.005C53.8614 436.005 54.4257 436.005 54.9922 436.005C55.3352 436.005 55.8774 436.242 54.8483 435.97C55.1205 436.04 55.406 436.076 55.6804 436.144C55.9548 436.213 56.2248 436.315 56.4992 436.383C57.4043 436.605 56.1916 436.085 56.6143 436.414C56.8931 436.636 58.4356 437.572 57.5437 436.87C58.5606 437.826 59.9036 438.358 61.2991 438.358C62.6946 438.358 64.0376 437.826 65.0545 436.87C66.0424 435.87 66.5964 434.521 66.5964 433.115C66.5964 431.709 66.0424 430.36 65.0545 429.359C62.2631 427.117 58.8649 425.762 55.2968 425.466C51.7286 425.171 48.1537 425.949 45.0316 427.702C37.9634 431.625 36.3126 439.548 38.229 446.955C39.3233 450.729 40.9707 454.321 43.1174 457.612C45.0595 460.896 47.2532 464.024 49.6789 466.969C52.1408 469.86 55.3445 472.024 58.9451 473.23C62.5458 474.436 66.407 474.637 70.1134 473.811C77.7149 472.041 84.1679 462.319 81.9992 454.649C81.6247 453.291 80.726 452.137 79.5007 451.441C78.2754 450.745 76.8238 450.565 75.4654 450.939C74.107 451.314 72.953 452.212 72.2572 453.438C71.5614 454.663 71.3809 456.114 71.7554 457.473L71.7753 457.466Z" fill="#211715"/>
<path d="M84.8252 410.901C78.1863 403.598 66.369 405.316 59.6483 411.468C57.7812 413.082 56.2536 415.051 55.1541 417.261C54.0547 419.471 53.4054 421.877 53.2439 424.34C53.213 429.054 56.2425 433.513 58.5551 437.443C62.3702 443.932 66.9289 450.168 71.2708 456.324C73.0776 459.169 75.2336 461.776 77.6884 464.085C81.3425 466.927 85.9018 468.35 90.5235 468.091C102.197 467.591 108.597 456.161 105.66 445.443C103.857 438.857 93.6062 441.652 95.4164 448.267C95.8526 449.46 95.988 450.742 95.8104 451.999C95.6328 453.257 95.1479 454.451 94.3985 455.477C93.9799 455.951 93.5076 456.375 92.991 456.74C92.0402 457.306 90.9384 457.565 89.8353 457.482C88.5797 457.477 87.3339 457.261 86.1507 456.84C85.7089 456.605 85.2538 456.396 84.7875 456.214C84.6946 456.192 84.1237 455.789 84.7875 456.256C85.4957 456.754 84.5463 456.017 84.4689 455.937C82.966 454.414 81.6156 452.748 80.4369 450.962C77.4029 446.66 74.4309 442.294 71.4456 437.959C69.3041 434.825 67.3389 431.574 65.5591 428.222C64.9181 427.105 64.3518 425.946 63.864 424.754C63.9967 425.122 63.864 424.267 63.864 424.17C63.9812 423.519 64.2008 422.89 64.5146 422.307C65.1378 421.043 66.0148 419.922 67.0908 419.013C68.1668 418.103 69.4188 417.426 70.7684 417.022C71.8739 416.589 73.0819 416.489 74.2436 416.734C75.4052 416.98 76.4696 417.56 77.3055 418.403C81.9151 423.471 89.4082 415.942 84.8163 410.892L84.8252 410.901Z" fill="#211715"/>
<path d="M113.788 436.036C113.985 437.289 113.865 438.571 113.44 439.766C113.015 440.961 112.298 442.031 111.354 442.879C110.718 443.493 109.917 443.911 109.048 444.08C108.179 444.25 107.28 444.165 106.459 443.835C104.047 442.298 102.108 440.123 100.856 437.552C98.4769 433.648 96.0316 429.793 93.5531 425.947C89.5277 419.671 84.9225 413.172 83.2451 405.794C83.2451 405.769 83.0105 404.72 83.1632 405.351C83.3159 405.982 83.4066 404.687 83.1831 405.207C82.9596 405.727 83.5726 403.891 83.3491 404.446C83.8044 403.365 84.5582 402.436 85.5222 401.768C86.713 400.891 88.122 400.359 89.5951 400.23C91.0681 400.1 92.5484 400.378 93.874 401.034C96.8748 402.452 98.9903 405.772 100.955 408.336C103.217 411.302 105.417 414.342 107.393 417.507C111.005 423.294 120.199 417.967 116.566 412.147C114.102 408.29 111.443 404.562 108.599 400.976C105.742 397.294 102.887 393.541 98.55 391.524C88.9501 387.061 75.6989 391.243 72.988 402.282C71.8483 406.929 73.6939 411.656 75.544 415.854C77.8045 420.672 80.4285 425.311 83.3934 429.731C86.3875 434.427 89.2976 439.176 92.2851 443.872C94.7655 448.353 98.6359 451.906 103.312 453.994C105.881 454.793 108.611 454.92 111.243 454.363C113.874 453.806 116.319 452.583 118.343 450.812C120.445 448.998 122.09 446.715 123.144 444.146C124.198 441.578 124.632 438.797 124.411 436.029C124.065 429.229 113.441 429.187 113.788 436.029V436.036Z" fill="#211715"/>
<path d="M367.684 384.917C339.066 398.17 309.304 409.058 280.148 421.165C264.657 427.594 246.42 433.411 236.953 448.218C234.429 452.475 232.349 456.98 230.746 461.662C228.765 466.883 226.778 472.101 224.879 477.352C221.389 487.005 218.143 496.744 215.034 506.526C208.081 528.403 201.362 550.311 193.165 571.768C192.802 573.126 192.987 574.572 193.681 575.794C194.375 577.017 195.522 577.917 196.874 578.301C198.231 578.644 199.668 578.45 200.886 577.759C202.103 577.068 203.006 575.933 203.407 574.592C210.643 555.656 216.797 536.379 222.852 517.039C228.84 497.917 234.802 478.472 242.74 460.051C244.496 455.687 247.109 451.72 250.423 448.382C254.147 445.025 258.367 442.263 262.933 440.194C268.749 437.317 275.043 434.713 280.58 432.4C295.685 426.089 310.897 420.036 326.065 413.889C341.806 407.509 357.631 401.224 373.046 394.085C374.254 393.366 375.13 392.201 375.487 390.841C375.843 389.482 375.651 388.037 374.951 386.818C374.219 385.625 373.054 384.761 371.7 384.406C370.346 384.051 368.908 384.232 367.684 384.912V384.917Z" fill="#211715"/>
<path d="M216.452 604.451C202.384 573.295 189.521 541.643 176.648 509.98C176.414 509.207 176.011 508.496 175.467 507.899C174.924 507.302 174.253 506.834 173.505 506.53C172.758 506.225 171.951 506.092 171.145 506.139C170.339 506.187 169.554 506.414 168.847 506.804C155.55 513.793 141.982 520.24 128.142 526.148C115.177 531.988 101.703 536.623 87.8901 539.996C86.5387 540.381 85.3927 541.282 84.6989 542.504C84.0052 543.726 83.8192 545.171 84.1812 546.529C92.0992 571.843 99.6852 597.272 108.637 622.248C113.217 635.03 118.172 647.675 123.632 660.109C127.562 669.594 132.114 678.809 137.257 687.694C142.235 696.338 148.896 703.895 156.846 709.919C165.43 715.975 175.68 719.222 186.186 719.213C197.914 719.13 209.453 716.247 219.843 710.804C228.716 705.922 236.729 699.618 243.561 692.142C257.695 677.567 270.93 662.146 283.193 645.964C283.896 644.746 284.09 643.3 283.734 641.939C283.377 640.578 282.498 639.413 281.288 638.697C280.064 638.021 278.627 637.842 277.274 638.197C275.922 638.551 274.757 639.413 274.023 640.602L272.018 643.222C271.595 643.773 271.174 644.329 270.75 644.88C270.623 645.041 270.502 645.207 270.376 645.367C271.152 644.377 270.535 645.145 270.106 645.679C267.562 648.864 264.98 652.018 262.36 655.141C255.878 662.907 249.246 670.552 242.368 677.97C236.265 684.554 229.993 691.613 222.591 696.78C213.927 702.875 203.92 706.788 193.42 708.188C184.04 709.591 174.458 707.881 166.143 703.32C158.749 698.711 152.552 692.417 148.058 684.952C142.901 676.604 138.399 667.867 134.595 658.821C129.619 647.633 125.027 636.288 120.819 624.788C111.011 598.098 102.894 570.834 94.4161 543.707L90.7072 550.242C105.114 546.675 119.163 541.796 132.681 535.668C146.782 529.684 160.621 523.119 174.2 515.972L166.399 512.799C179.617 545.31 192.829 577.816 207.273 609.809C207.991 611.017 209.156 611.894 210.516 612.25C211.876 612.607 213.321 612.414 214.54 611.714C215.731 610.98 216.594 609.815 216.948 608.462C217.303 607.109 217.123 605.671 216.446 604.447L216.452 604.451Z" fill="#211715"/>
<path d="M528.084 393.286C557.087 405.001 586.542 416.079 615.251 428.2C621.197 430.707 627.409 433.38 633.357 436.182C642.123 440.314 651.851 443.927 657.494 452.257C663.912 461.74 667.395 473.424 670.993 484.19C674.779 495.516 678.039 507.012 680.929 518.599C687.568 545.201 692.275 572.231 697.425 599.151C697.81 600.502 698.711 601.648 699.932 602.342C701.154 603.035 702.6 603.222 703.957 602.86C705.299 602.461 706.435 601.558 707.126 600.34C707.818 599.123 708.011 597.685 707.666 596.328C702.953 571.682 698.593 546.945 692.808 522.521C689.985 510.604 686.809 498.767 683.1 487.093C679.713 475.523 675.451 464.228 670.351 453.304C667.899 448.04 664.469 443.291 660.242 439.309C655.868 435.657 650.998 432.644 645.776 430.362C639.337 427.304 632.881 424.303 626.335 421.477C610.088 414.468 593.65 407.894 577.208 401.361C561.783 395.236 546.297 389.265 530.908 383.051C529.55 382.685 528.103 382.87 526.88 383.564C525.657 384.258 524.757 385.407 524.375 386.76C524.035 388.117 524.23 389.553 524.921 390.769C525.612 391.986 526.745 392.89 528.084 393.293V393.286Z" fill="#211715"/>
<path d="M575.999 200.811C577.269 199.767 578.736 198.99 580.314 198.529C581.891 198.067 583.546 197.93 585.178 198.125C586.81 198.32 588.385 198.844 589.81 199.665C591.234 200.485 592.477 201.586 593.464 202.9C595.174 206.122 595.987 209.744 595.819 213.387C596.04 217.862 595.787 222.348 595.064 226.769C592.393 242.399 584.156 261.457 566.738 264.447C565.385 264.831 564.238 265.732 563.544 266.954C562.849 268.177 562.664 269.624 563.027 270.982C563.429 272.323 564.333 273.457 565.55 274.148C566.767 274.839 568.204 275.033 569.562 274.691C587.6 271.593 598.306 254.553 603.243 238.288C605.84 229.749 606.889 220.815 606.341 211.907C605.775 203.164 603.128 194.938 595.068 190.388C590.874 188.078 586.069 187.118 581.309 187.639C576.549 188.161 572.066 190.138 568.471 193.3C567.486 194.302 566.934 195.651 566.934 197.056C566.934 198.461 567.486 199.809 568.471 200.811C569.48 201.781 570.826 202.322 572.226 202.322C573.626 202.322 574.972 201.781 575.982 200.811H575.999Z" fill="#211715"/>
<path d="M562.664 256.374C562.374 261.476 561.428 266.52 559.849 271.38C559.311 273.188 558.72 274.981 558.121 276.769C557.922 277.36 557.733 277.955 557.517 278.539C557.368 278.938 556.711 280.405 557.39 278.889C555.114 283.853 552.496 288.653 549.557 293.255C541.219 307.063 530.593 319.351 518.132 329.592C511.277 335.269 503.246 339.351 494.62 341.542C487.961 343.072 490.78 353.318 497.443 351.784C515.083 347.73 529.866 335.061 541.524 321.774C551.508 310.791 559.833 298.408 566.233 285.017C570.395 276.01 572.792 266.29 573.293 256.381C573.514 249.543 562.892 249.552 562.671 256.381L562.664 256.374Z" fill="#211715"/>
<path d="M338.134 193.3C334.99 190.516 331.149 188.638 327.02 187.868C322.892 187.097 318.632 187.463 314.695 188.925C306.011 192.351 301.669 199.656 300.567 208.645C298.486 226.397 303.018 244.294 313.296 258.917C318.868 267.058 327.387 272.714 337.052 274.691C338.409 275.025 339.842 274.826 341.057 274.137C342.272 273.447 343.176 272.318 343.585 270.982C343.949 269.624 343.764 268.177 343.07 266.954C342.376 265.732 341.229 264.831 339.876 264.447C322.467 261.457 314.23 242.399 311.55 226.769C310.853 222.512 310.594 218.194 310.778 213.883C310.908 210.241 311.07 206.045 313.148 202.9C314.134 201.584 315.377 200.482 316.801 199.66C318.225 198.838 319.801 198.313 321.434 198.118C323.067 197.923 324.723 198.061 326.301 198.524C327.879 198.986 329.346 199.765 330.615 200.811C331.628 201.774 332.972 202.311 334.37 202.311C335.768 202.311 337.112 201.774 338.126 200.811C339.11 199.809 339.662 198.461 339.662 197.056C339.662 195.651 339.11 194.302 338.126 193.3H338.134Z" fill="#211715"/>
<path d="M334.047 254.666C340.5 291.895 360.676 328.327 395.169 346.294C404.489 351.149 414.648 354.188 425.104 355.247C426.51 355.238 427.855 354.676 428.849 353.681C429.843 352.687 430.406 351.342 430.415 349.936C430.385 348.537 429.815 347.204 428.826 346.214C427.836 345.225 426.503 344.656 425.104 344.625C389.548 340.941 361.844 309.052 350.68 277.021C347.865 268.817 345.729 260.396 344.291 251.842C343.906 250.49 343.006 249.344 341.784 248.65C340.562 247.956 339.116 247.771 337.758 248.133C336.417 248.534 335.283 249.438 334.591 250.655C333.9 251.872 333.705 253.309 334.047 254.666Z" fill="#211715"/>
<path d="M689.936 675.808C701.709 665.323 747.232 625.131 757.21 615.138C749.022 606.66 733.359 598.419 714.557 596.668C698.428 594.797 682.099 595.665 666.259 599.237C650.286 603.221 629.597 613.091 618.515 625.793C604.956 612.856 584.878 607.142 566.692 606.54C548.276 606.01 529.95 609.3 512.868 616.202C498.973 621.757 487.733 629.725 480.025 644.512C490.683 653.829 540.782 688.163 551.869 696.96L689.936 675.808Z" fill="#699635"/>
<path d="M477.578 616.264C474.845 618.848 472.312 621.636 470 624.603C474.083 628.869 478.424 632.88 482.999 636.612L484.272 637.557C491.639 627.097 501.341 620.823 512.874 616.213C529.956 609.311 548.282 606.021 566.698 606.551C584.884 607.151 604.963 612.865 618.521 625.804C629.604 613.093 650.293 603.232 666.266 599.249C682.106 595.677 698.435 594.808 714.564 596.679C724.273 597.567 733.731 600.265 742.447 604.633L742.813 604.27C745.638 601.586 751.29 595.936 756.09 590.848C738.714 577.71 728.97 575.747 708.481 573.755C692.886 572.237 675.169 571.726 659.924 575.526C644.679 579.325 625.127 585.692 614.295 597.742C602.099 589.144 585.033 584.271 566.703 583.667C548.287 583.136 529.96 586.426 512.879 593.329C505.029 596.276 497.598 600.236 490.774 605.109C486.168 608.575 481.762 612.3 477.578 616.264Z" fill="white"/>
<path d="M646.467 648.598C645.822 648.079 645.173 647.566 644.519 647.06C636.161 640.605 630.102 639.596 621.504 644.404L616.904 648.399C613.392 644.672 610.413 641.583 609.141 640.481C607.308 638.823 605.078 637.666 602.667 637.123C600.255 636.58 597.745 636.67 595.378 637.383C589.95 639.403 587.677 642.371 587.677 646.916C587.677 646.916 587.456 648.56 587.161 650.78C584.285 647.735 581.691 645.11 579.713 643.338C578.04 641.837 569.88 637.805 564.443 641.897C559.654 645.495 558.911 650.306 561.688 654.54C561.979 655.03 562.244 655.536 562.482 656.053L561.268 655.418C559.728 654.566 558.025 654.053 556.272 653.913C554.518 653.773 552.755 654.008 551.1 654.604C549.445 655.2 547.936 656.143 546.674 657.369C545.413 658.595 544.428 660.077 543.785 661.714C542.926 665.63 543.419 669.721 545.184 673.321C548.702 680.121 564.069 697.177 572.366 705.942C591.371 719.386 621.699 710.023 645.991 704.376C649.405 703.533 652.657 702.134 655.617 700.235C664.706 693.928 669.382 686.176 676.804 677.977C679.957 674.937 682.753 671.548 685.138 667.875C687.555 663.155 689.549 658.018 688.201 652.889C687.651 650.201 686.142 647.806 683.954 646.15C680.341 643.767 675.505 644.904 671.498 646.54C665.508 648.987 659.94 652.357 654.993 656.527C652.355 653.673 649.505 651.022 646.467 648.598Z" fill="white"/>
<path d="M652.951 695.652C647.825 699.193 641.304 700.034 635.375 701.463C628.243 703.185 621.093 704.875 613.854 706.086C601.566 708.142 587.611 709.115 576.544 702.364C570.69 698.794 565.348 707.978 571.182 711.537C584.305 719.541 600.275 718.89 614.908 716.626C622.607 715.429 630.199 713.645 637.77 711.82C644.721 710.145 652.3 708.985 658.313 704.833C659.502 704.098 660.363 702.934 660.717 701.582C661.072 700.229 660.893 698.792 660.218 697.568C659.499 696.361 658.334 695.485 656.974 695.128C655.615 694.772 654.17 694.964 652.951 695.663V695.652Z" fill="#211715"/>
<path d="M663.15 658.154C657.709 650.764 650.904 644.483 643.103 639.651C639.577 637.439 635.524 636.209 631.363 636.086C626.94 636.249 622.631 637.529 618.836 639.806C617.619 640.517 616.735 641.682 616.377 643.044C616.02 644.407 616.218 645.856 616.929 647.072C617.64 648.289 618.805 649.173 620.167 649.53C621.53 649.888 622.979 649.689 624.195 648.979C625.442 648.22 626.78 647.625 628.179 647.208C628.94 646.971 629.718 646.793 630.507 646.677C629.573 646.801 631.29 646.693 631.613 646.699C631.742 646.699 633.063 646.799 632.397 646.724C631.821 646.657 632.826 646.81 632.93 646.832C633.605 646.979 634.27 647.167 634.922 647.396C635.143 647.476 636.028 647.863 635.417 647.578C635.763 647.737 636.103 647.908 636.442 648.085C637.252 648.507 638.038 648.97 638.805 649.474C644.608 653.275 649.737 658.017 653.98 663.505C654.72 664.688 655.885 665.545 657.235 665.899C658.586 666.253 660.021 666.078 661.247 665.41C662.456 664.693 663.334 663.528 663.69 662.168C664.047 660.809 663.854 659.363 663.152 658.145L663.15 658.154Z" fill="#211715"/>
<path d="M638.675 663.765C632.861 658.293 627.65 652.087 622.188 646.267C619.48 643.391 616.793 640.45 613.945 637.699C611.661 635.374 608.861 633.622 605.772 632.583C602.683 631.545 599.393 631.251 596.168 631.724C592.441 632.215 589.009 634.013 586.481 636.796C583.954 639.58 582.496 643.169 582.366 646.927C582.213 653.765 592.836 653.763 592.988 646.927C593.019 645.486 592.891 645.632 593.626 644.521C593.183 645.185 594.354 643.8 594.577 643.636C594.287 643.857 595.823 642.957 596.095 642.828C597.24 642.28 598.499 642.01 599.768 642.042C601.037 642.073 602.281 642.404 603.398 643.008C606.89 644.679 609.634 648.441 612.232 651.196C618.535 657.857 624.494 665.016 631.175 671.303C636.15 675.985 643.676 668.49 638.686 663.792L638.675 663.765Z" fill="#211715"/>
<path d="M555.631 693.218C536.157 677.818 515.158 664.301 495.171 649.574C492.769 647.803 490.383 646.014 488.014 644.205C487.39 643.725 488.689 644.732 488.089 644.262L487.304 643.649C486.861 643.306 486.436 642.963 486.007 642.616C485.257 642.012 484.515 641.399 483.794 640.768L484.624 647.203C488.478 639.644 494.136 633.151 501.097 628.298C508.905 623.3 517.435 619.535 526.389 617.134C545.991 611.32 567.594 609.541 587.487 614.983C597.634 617.545 607.001 622.548 614.773 629.557C615.777 630.538 617.124 631.088 618.528 631.088C619.932 631.088 621.28 630.538 622.283 629.557C633.57 616.822 650.693 608.74 666.954 604.551C677.522 601.966 688.389 600.812 699.264 601.121C709.715 600.961 720.131 602.364 730.168 605.281C738.908 607.895 746.897 612.562 753.466 618.893V611.382C745.816 619.013 737.632 626.143 729.603 633.366C719.173 642.747 708.706 652.085 698.204 661.38C694.197 664.938 690.19 668.496 686.185 672.053C681.069 676.607 688.604 684.098 693.696 679.564C712.462 662.854 731.345 646.272 749.883 629.307C753.623 625.886 757.385 622.474 760.977 618.893C761.952 617.886 762.497 616.539 762.497 615.138C762.497 613.736 761.952 612.389 760.977 611.382C746.358 596.509 725.186 591.649 705.077 590.68C683.165 589.246 661.25 593.435 641.412 602.851C631.375 607.464 622.328 613.979 614.77 622.035H622.281C606.636 607.344 584.714 601.351 563.649 601.165C551.447 601.089 539.29 602.64 527.498 605.777C517.005 608.307 506.947 612.381 497.651 617.866C488.261 623.752 480.601 632.026 475.455 641.841C474.879 642.86 474.649 644.038 474.798 645.198C474.948 646.359 475.47 647.44 476.285 648.279C484.571 655.48 493.81 661.712 502.717 668.101C513.961 676.167 525.289 684.122 536.52 692.197C538.942 693.937 541.358 695.689 543.767 697.453C544.726 698.159 545.682 698.865 546.644 699.582L547.855 700.5C548.415 700.923 546.908 699.755 548.14 700.722C549.156 701.679 550.5 702.212 551.896 702.212C553.292 702.212 554.635 701.679 555.651 700.722C556.639 699.722 557.193 698.372 557.193 696.966C557.193 695.56 556.639 694.211 555.651 693.211L555.631 693.218Z" fill="#211715"/>
<path d="M485.679 632.023C486.766 632.848 485.648 631.976 485.237 631.629C484.684 631.164 484.135 630.692 483.593 630.213C482.218 629.009 480.864 627.778 479.523 626.541C477.464 624.791 475.54 622.886 473.769 620.845V628.356C485.963 612.602 503.301 601.856 522.012 595.626C541.666 588.78 562.756 587.126 583.238 590.824C593.394 592.666 603.06 596.583 611.632 602.331C612.647 602.919 613.828 603.157 614.991 603.006C616.154 602.856 617.236 602.326 618.068 601.499C624.347 595.118 631.981 590.23 640.405 587.197C649.267 583.612 658.478 580.964 667.89 579.294C678.81 577.716 689.876 577.423 700.864 578.423C709.916 578.797 718.917 579.988 727.756 581.981C737.124 584.706 745.852 589.279 753.426 595.429L752.35 587.086C748.024 591.654 743.622 596.159 739.073 600.508C734.118 605.237 741.635 612.741 746.583 608.019C751.136 603.675 755.537 599.167 759.861 594.597C760.418 594.014 760.838 593.314 761.09 592.548C761.341 591.782 761.418 590.97 761.315 590.17C761.212 589.37 760.931 588.604 760.494 587.927C760.056 587.25 759.472 586.679 758.786 586.256C751.24 580.266 742.707 575.636 733.571 572.576C724.139 570.061 714.465 568.559 704.714 568.095C693.109 566.944 681.415 567.032 669.829 568.358C659.47 569.797 649.311 572.426 639.553 576.192C628.931 580.2 618.338 585.502 610.564 593.989L616.999 593.159C599.68 581.131 577.247 577.464 556.552 578.431C534.643 579.456 511.531 585.586 492.818 597.29C482.683 603.566 473.7 611.535 466.263 620.852C465.322 621.876 464.8 623.216 464.8 624.607C464.8 625.998 465.322 627.338 466.263 628.363C470.42 633.192 475.145 637.501 480.335 641.198C481.553 641.9 483 642.094 484.36 641.738C485.72 641.381 486.885 640.502 487.602 639.292C488.279 638.068 488.459 636.63 488.104 635.277C487.75 633.924 486.888 632.76 485.697 632.025L485.679 632.023Z" fill="#211715"/>
<path d="M563.959 650.833C560.96 649.185 557.551 648.434 554.137 648.67C550.724 648.905 547.45 650.117 544.706 652.161C542.498 653.752 540.732 655.88 539.574 658.343C538.417 660.806 537.907 663.524 538.091 666.24C538.514 671.862 540.68 677.212 544.288 681.544C547.828 686.304 551.661 690.852 555.574 695.322C559.805 700.169 564.133 704.93 568.557 709.607C573.262 714.586 580.762 707.064 576.068 702.083C567.769 693.638 560.002 684.688 552.812 675.282C551.591 673.746 550.529 672.091 549.643 670.34C549.004 668.809 548.685 667.164 548.705 665.505C548.733 665.083 548.733 664.659 548.705 664.237C548.727 664.055 549.187 662.292 548.888 663.13C548.59 663.969 549.258 662.524 549.362 662.354C550.066 661.205 548.698 662.995 549.698 661.911C550.353 661.118 551.156 660.461 552.064 659.977C553.074 659.447 554.198 659.172 555.339 659.177C556.48 659.181 557.602 659.465 558.608 660.003C559.832 660.679 561.269 660.857 562.622 660.503C563.975 660.148 565.139 659.287 565.875 658.098C566.573 656.879 566.764 655.435 566.408 654.076C566.051 652.717 565.176 651.553 563.97 650.833H563.959Z" fill="#211715"/>
<path d="M612.823 671.066C607.355 665.142 602.024 659.089 596.584 653.141C593.898 650.2 591.194 647.274 588.416 644.417C586.365 642.061 584.05 639.948 581.516 638.119C573.43 632.981 562.166 633.762 556.839 642.399C550.752 652.273 559.754 661.269 565.652 668.486C572.322 676.804 579.434 684.758 586.958 692.313C591.826 697.117 599.351 689.611 594.469 684.802C588.549 678.964 582.972 672.827 577.65 666.434C574.944 663.181 572.282 659.893 569.599 656.62C568.352 655.135 567.241 653.541 566.28 651.857C566.005 651.415 565.766 650.952 565.565 650.472C565.534 650.381 565.313 649.184 565.37 649.675C565.421 650.118 565.521 648.739 565.357 649.392C565.65 648.161 566.384 647.081 567.422 646.356C568.459 645.631 569.726 645.313 570.983 645.462C572.233 645.644 573.458 645.974 574.632 646.444C574.019 646.192 575.36 646.821 575.634 646.978C575.855 647.102 576.077 647.279 576.314 647.389C577.177 647.805 575.701 646.675 576.106 647.23C576.935 648.147 577.832 649.001 578.788 649.786C579.921 650.908 581.032 652.05 582.134 653.201C584.568 655.734 586.94 658.313 589.306 660.902C594.663 666.771 599.928 672.734 605.31 678.574C609.957 683.609 617.453 676.083 612.821 671.064L612.823 671.066Z" fill="#211715"/>
<path d="M661.632 658.051C664.763 655.836 668.084 653.904 671.557 652.278C673.912 651.185 677.464 649.43 680.139 650.193C682.363 650.824 683.169 653.734 683.328 655.774C683.277 659.358 682.196 662.852 680.214 665.839C678.531 668.379 676.567 670.722 674.359 672.823C672.007 675.335 669.796 677.964 667.612 680.621C663.417 686.263 658.486 691.318 652.951 695.652C651.763 696.388 650.903 697.552 650.548 698.904C650.194 700.256 650.372 701.692 651.045 702.917C651.764 704.125 652.929 705.001 654.289 705.358C655.648 705.714 657.094 705.522 658.313 704.822C665.95 699.412 671.484 692.405 677.455 685.32C680.082 682.201 682.972 679.331 685.623 676.246C688.758 672.609 691.149 668.392 692.66 663.834C695.59 655.121 693.142 642.766 683.08 640.009C673.972 637.511 663.411 643.877 656.27 648.888C655.082 649.624 654.221 650.789 653.867 652.141C653.512 653.493 653.691 654.93 654.365 656.155C655.085 657.362 656.249 658.238 657.609 658.594C658.968 658.95 660.413 658.759 661.632 658.06V658.051Z" fill="#211715"/>
<path d="M431.973 292.2C438.942 295.798 446.704 297.59 454.545 297.411C462.578 297.361 470.755 295.803 477.197 290.773C478.186 289.773 478.741 288.423 478.741 287.017C478.741 285.611 478.186 284.261 477.197 283.262C476.184 282.298 474.84 281.761 473.442 281.761C472.044 281.761 470.699 282.298 469.686 283.262C471.258 282.038 469.908 283.069 469.496 283.328C469.038 283.622 468.564 283.895 468.08 284.149C467.746 284.324 466.088 285.019 467.416 284.512C466.767 284.76 466.123 285.01 465.464 285.222C461.703 286.42 457.76 286.944 453.817 286.772C450.056 286.875 446.303 286.37 442.704 285.276C441.989 285.054 441.292 284.806 440.586 284.563C440.365 284.486 440.143 284.366 439.904 284.297C441.212 284.68 440.285 284.468 439.935 284.297C439.06 283.886 438.196 283.454 437.342 283.003C436.118 282.322 434.679 282.14 433.325 282.495C431.971 282.85 430.806 283.715 430.074 284.908C429.379 286.128 429.189 287.572 429.545 288.93C429.901 290.289 430.775 291.454 431.98 292.176L431.973 292.2Z" fill="#211715"/>
<path d="M452.135 238.651C453.19 242.457 454.034 246.319 454.665 250.218L454.474 248.806C454.549 249.334 454.563 249.87 454.516 250.401L454.707 248.99C454.672 249.234 454.614 249.475 454.532 249.709L455.067 248.439C454.996 248.6 454.911 248.755 454.813 248.901L455.645 247.826C455.533 247.964 455.406 248.089 455.267 248.2L456.34 247.367C456.047 247.551 455.741 247.713 455.426 247.854L456.694 247.319C456.197 247.528 455.677 247.677 455.145 247.761L456.557 247.571C456.075 247.63 455.589 247.63 455.107 247.571L456.519 247.761C455.973 247.686 455.437 247.553 454.89 247.478C453.506 247.156 452.052 247.346 450.796 248.014C450.194 248.366 449.667 248.833 449.245 249.389C448.823 249.944 448.515 250.578 448.338 251.253C448.161 251.927 448.119 252.631 448.214 253.322C448.309 254.013 448.539 254.679 448.891 255.281C449.228 255.88 449.684 256.405 450.23 256.823C450.775 257.242 451.4 257.545 452.067 257.715C453.255 257.875 454.408 258.18 455.607 258.233C457.401 258.245 459.171 257.827 460.77 257.014C461.773 256.567 462.662 255.9 463.371 255.062C464.08 254.224 464.591 253.237 464.866 252.174C465.229 250.429 465.21 248.626 464.811 246.889C464.183 243.165 463.322 239.472 462.364 235.825C461.989 234.466 461.09 233.312 459.865 232.616C458.64 231.921 457.188 231.74 455.83 232.115C454.471 232.489 453.317 233.388 452.622 234.613C451.926 235.838 451.745 237.29 452.12 238.648L452.135 238.651Z" fill="#211715"/>
<path d="M390.378 206.058C388.446 212.336 389.714 226.776 401.598 228.004C417.31 227.911 418.151 210.453 412.862 202.245C408.529 195.524 395.789 192.729 390.378 206.058Z" fill="#211715"/>
<path d="M516.245 206.06C518.177 212.336 516.909 226.776 505.025 228.004C489.313 227.911 488.47 210.453 493.761 202.243C498.094 195.524 510.832 192.729 516.245 206.06Z" fill="#211715"/>
</g>
<defs>
<clipPath id="clip0_34_95">
<rect width="800" height="800" fill="white"/>
</clipPath>
</defs>
</svg>
