<svg width="800" height="800" viewBox="0 0 800 800" fill="none" xmlns="http://www.w3.org/2000/svg">
<g clip-path="url(#clip0_34_92)">
<path d="M400 800C620.914 800 800 620.914 800 400C800 179.086 620.914 0 400 0C179.086 0 0 179.086 0 400C0 620.914 179.086 800 400 800Z" fill="#88C9F9"/>
<path d="M571.467 39.0222C548.756 51.6444 529.867 72.9778 504.178 65.2667C462.511 52.7778 406.956 25 370.844 59.7111C334.733 94.4222 326.4 126.378 370.844 125C415.289 123.622 445.844 70.8222 468.067 93.0444C490.289 115.267 484.711 133.333 431.956 140.267C379.2 147.2 322.222 155.556 291.667 155.556C261.111 155.556 254.156 173.6 275 193.067C295.844 212.533 262.489 213.889 227.778 233.333C193.067 252.778 236.111 261.111 265.289 277.778C294.467 294.444 316.667 273.6 329.178 245.822C341.689 218.044 395.422 184.711 417.844 188.889C440.289 193.067 440.289 204.178 436.111 223.6C431.933 243.022 452.778 237.489 454.156 215.267C455.533 193.044 480.556 176.378 499.978 175C519.4 173.622 536.089 201.4 513.867 215.267C491.644 229.133 469.422 240.267 497.2 247.222C524.978 254.178 544.422 290.289 512.489 305.556C480.556 320.822 425 330.556 400 318.044C375 305.533 318.044 287.489 302.778 297.2C287.511 306.911 279.178 316.978 261.111 323.756C243.067 330.533 169.444 363.867 168.044 406.933C166.644 450 165.289 498.622 194.444 500C223.6 501.378 294.444 481.956 316.667 463.889C338.889 445.822 369.444 450 379.156 470.822C388.867 491.644 381.933 504.156 372.222 537.489C362.511 570.822 378.578 587.489 394.156 616.644C409.733 645.8 422.222 662.467 422.222 683.311C422.222 704.156 444.444 724.978 477.778 690.244C511.111 655.511 541.667 587.467 555.556 562.467C569.444 537.467 580.556 481.911 597.222 470.8C613.889 459.689 640.289 433.289 620.822 437.467C601.356 441.644 562.489 436.089 552.778 408.311C543.067 380.533 501.4 327.756 520.822 322.2C540.244 316.644 562.489 353.089 570.822 370.289C579.156 387.489 590.267 408.311 606.933 413.867C623.6 419.422 659.711 376.689 670.822 370.289C681.933 363.867 673.6 337.489 651.378 340.267C629.156 343.044 600 340.267 600 326.4C600 312.533 627.778 294.444 650 298.622C672.222 302.8 688.889 309.733 702.778 326.4C716.667 343.067 744.444 373.622 755.556 393.067C766.667 412.511 775 415.289 780.556 380.578C784.244 357.511 789.156 344.822 793.667 331.2C771.156 201.667 686.556 93.8 571.467 39.0222Z" fill="#6C936C"/>
</g>
<defs>
<clipPath id="clip0_34_92">
<rect width="800" height="800" fill="white"/>
</clipPath>
</defs>
</svg>
